<?xml version="1.0"?><svg xmlns="http://www.w3.org/2000/svg" width="220" height="540"><rect x="0" y="0" width="100%" height="100%" fill="rgb(162, 155, 254)" /><path d="M0 58 C 38.5 0, 72 0, 110 58 S 182 116, 220 58 S 292 0, 330, 58" fill="none" stroke="#ddd" style="opacity:0.072;stroke-width:15px;" transform="translate(-55, -87)" /><path d="M0 58 C 38.5 0, 72 0, 110 58 S 182 116, 220 58 S 292 0, 330, 58" fill="none" stroke="#ddd" style="opacity:0.072;stroke-width:15px;" transform="translate(-55, 453)" /><path d="M0 58 C 38.5 0, 72 0, 110 58 S 182 116, 220 58 S 292 0, 330, 58" fill="none" stroke="#ddd" style="opacity:0.072;stroke-width:15px;" transform="translate(-55, -72)" /><path d="M0 58 C 38.5 0, 72 0, 110 58 S 182 116, 220 58 S 292 0, 330, 58" fill="none" stroke="#ddd" style="opacity:0.072;stroke-width:15px;" transform="translate(-55, 468)" /><path d="M0 58 C 38.5 0, 72 0, 110 58 S 182 116, 220 58 S 292 0, 330, 58" fill="none" stroke="#222" style="opacity:0.080666666666667;stroke-width:15px;" transform="translate(-55, -57)" /><path d="M0 58 C 38.5 0, 72 0, 110 58 S 182 116, 220 58 S 292 0, 330, 58" fill="none" stroke="#222" style="opacity:0.080666666666667;stroke-width:15px;" transform="translate(-55, 483)" /><path d="M0 58 C 38.5 0, 72 0, 110 58 S 182 116, 220 58 S 292 0, 330, 58" fill="none" stroke="#222" style="opacity:0.028666666666667;stroke-width:15px;" transform="translate(-55, -42)" /><path d="M0 58 C 38.5 0, 72 0, 110 58 S 182 116, 220 58 S 292 0, 330, 58" fill="none" stroke="#222" style="opacity:0.028666666666667;stroke-width:15px;" transform="translate(-55, 498)" /><path d="M0 58 C 38.5 0, 72 0, 110 58 S 182 116, 220 58 S 292 0, 330, 58" fill="none" stroke="#ddd" style="opacity:0.089333333333333;stroke-width:15px;" transform="translate(-55, -27)" /><path d="M0 58 C 38.5 0, 72 0, 110 58 S 182 116, 220 58 S 292 0, 330, 58" fill="none" stroke="#ddd" style="opacity:0.089333333333333;stroke-width:15px;" transform="translate(-55, 513)" /><path d="M0 58 C 38.5 0, 72 0, 110 58 S 182 116, 220 58 S 292 0, 330, 58" fill="none" stroke="#ddd" style="opacity:0.14133333333333;stroke-width:15px;" transform="translate(-55, -12)" /><path d="M0 58 C 38.5 0, 72 0, 110 58 S 182 116, 220 58 S 292 0, 330, 58" fill="none" stroke="#ddd" style="opacity:0.14133333333333;stroke-width:15px;" transform="translate(-55, 528)" /><path d="M0 58 C 38.5 0, 72 0, 110 58 S 182 116, 220 58 S 292 0, 330, 58" fill="none" stroke="#ddd" style="opacity:0.14133333333333;stroke-width:15px;" transform="translate(-55, 3)" /><path d="M0 58 C 38.5 0, 72 0, 110 58 S 182 116, 220 58 S 292 0, 330, 58" fill="none" stroke="#ddd" style="opacity:0.14133333333333;stroke-width:15px;" transform="translate(-55, 543)" /><path d="M0 58 C 38.5 0, 72 0, 110 58 S 182 116, 220 58 S 292 0, 330, 58" fill="none" stroke="#ddd" style="opacity:0.089333333333333;stroke-width:15px;" transform="translate(-55, 18)" /><path d="M0 58 C 38.5 0, 72 0, 110 58 S 182 116, 220 58 S 292 0, 330, 58" fill="none" stroke="#ddd" style="opacity:0.089333333333333;stroke-width:15px;" transform="translate(-55, 558)" /><path d="M0 58 C 38.5 0, 72 0, 110 58 S 182 116, 220 58 S 292 0, 330, 58" fill="none" stroke="#ddd" style="opacity:0.037333333333333;stroke-width:15px;" transform="translate(-55, 33)" /><path d="M0 58 C 38.5 0, 72 0, 110 58 S 182 116, 220 58 S 292 0, 330, 58" fill="none" stroke="#ddd" style="opacity:0.037333333333333;stroke-width:15px;" transform="translate(-55, 573)" /><path d="M0 58 C 38.5 0, 72 0, 110 58 S 182 116, 220 58 S 292 0, 330, 58" fill="none" stroke="#222" style="opacity:0.080666666666667;stroke-width:15px;" transform="translate(-55, 48)" /><path d="M0 58 C 38.5 0, 72 0, 110 58 S 182 116, 220 58 S 292 0, 330, 58" fill="none" stroke="#222" style="opacity:0.080666666666667;stroke-width:15px;" transform="translate(-55, 588)" /><path d="M0 58 C 38.5 0, 72 0, 110 58 S 182 116, 220 58 S 292 0, 330, 58" fill="none" stroke="#222" style="opacity:0.15;stroke-width:15px;" transform="translate(-55, 63)" /><path d="M0 58 C 38.5 0, 72 0, 110 58 S 182 116, 220 58 S 292 0, 330, 58" fill="none" stroke="#222" style="opacity:0.15;stroke-width:15px;" transform="translate(-55, 603)" /><path d="M0 58 C 38.5 0, 72 0, 110 58 S 182 116, 220 58 S 292 0, 330, 58" fill="none" stroke="#ddd" style="opacity:0.054666666666667;stroke-width:15px;" transform="translate(-55, 78)" /><path d="M0 58 C 38.5 0, 72 0, 110 58 S 182 116, 220 58 S 292 0, 330, 58" fill="none" stroke="#ddd" style="opacity:0.054666666666667;stroke-width:15px;" transform="translate(-55, 618)" /><path d="M0 58 C 38.5 0, 72 0, 110 58 S 182 116, 220 58 S 292 0, 330, 58" fill="none" stroke="#222" style="opacity:0.046;stroke-width:15px;" transform="translate(-55, 93)" /><path d="M0 58 C 38.5 0, 72 0, 110 58 S 182 116, 220 58 S 292 0, 330, 58" fill="none" stroke="#222" style="opacity:0.046;stroke-width:15px;" transform="translate(-55, 633)" /><path d="M0 58 C 38.5 0, 72 0, 110 58 S 182 116, 220 58 S 292 0, 330, 58" fill="none" stroke="#222" style="opacity:0.063333333333333;stroke-width:15px;" transform="translate(-55, 108)" /><path d="M0 58 C 38.5 0, 72 0, 110 58 S 182 116, 220 58 S 292 0, 330, 58" fill="none" stroke="#222" style="opacity:0.063333333333333;stroke-width:15px;" transform="translate(-55, 648)" /><path d="M0 58 C 38.5 0, 72 0, 110 58 S 182 116, 220 58 S 292 0, 330, 58" fill="none" stroke="#ddd" style="opacity:0.124;stroke-width:15px;" transform="translate(-55, 123)" /><path d="M0 58 C 38.5 0, 72 0, 110 58 S 182 116, 220 58 S 292 0, 330, 58" fill="none" stroke="#ddd" style="opacity:0.124;stroke-width:15px;" transform="translate(-55, 663)" /><path d="M0 58 C 38.5 0, 72 0, 110 58 S 182 116, 220 58 S 292 0, 330, 58" fill="none" stroke="#ddd" style="opacity:0.02;stroke-width:15px;" transform="translate(-55, 138)" /><path d="M0 58 C 38.5 0, 72 0, 110 58 S 182 116, 220 58 S 292 0, 330, 58" fill="none" stroke="#ddd" style="opacity:0.02;stroke-width:15px;" transform="translate(-55, 678)" /><path d="M0 58 C 38.5 0, 72 0, 110 58 S 182 116, 220 58 S 292 0, 330, 58" fill="none" stroke="#ddd" style="opacity:0.02;stroke-width:15px;" transform="translate(-55, 153)" /><path d="M0 58 C 38.5 0, 72 0, 110 58 S 182 116, 220 58 S 292 0, 330, 58" fill="none" stroke="#ddd" style="opacity:0.02;stroke-width:15px;" transform="translate(-55, 693)" /><path d="M0 58 C 38.5 0, 72 0, 110 58 S 182 116, 220 58 S 292 0, 330, 58" fill="none" stroke="#ddd" style="opacity:0.02;stroke-width:15px;" transform="translate(-55, 168)" /><path d="M0 58 C 38.5 0, 72 0, 110 58 S 182 116, 220 58 S 292 0, 330, 58" fill="none" stroke="#ddd" style="opacity:0.02;stroke-width:15px;" transform="translate(-55, 708)" /><path d="M0 58 C 38.5 0, 72 0, 110 58 S 182 116, 220 58 S 292 0, 330, 58" fill="none" stroke="#222" style="opacity:0.028666666666667;stroke-width:15px;" transform="translate(-55, 183)" /><path d="M0 58 C 38.5 0, 72 0, 110 58 S 182 116, 220 58 S 292 0, 330, 58" fill="none" stroke="#222" style="opacity:0.028666666666667;stroke-width:15px;" transform="translate(-55, 723)" /><path d="M0 58 C 38.5 0, 72 0, 110 58 S 182 116, 220 58 S 292 0, 330, 58" fill="none" stroke="#222" style="opacity:0.080666666666667;stroke-width:15px;" transform="translate(-55, 198)" /><path d="M0 58 C 38.5 0, 72 0, 110 58 S 182 116, 220 58 S 292 0, 330, 58" fill="none" stroke="#222" style="opacity:0.080666666666667;stroke-width:15px;" transform="translate(-55, 738)" /><path d="M0 58 C 38.5 0, 72 0, 110 58 S 182 116, 220 58 S 292 0, 330, 58" fill="none" stroke="#ddd" style="opacity:0.054666666666667;stroke-width:15px;" transform="translate(-55, 213)" /><path d="M0 58 C 38.5 0, 72 0, 110 58 S 182 116, 220 58 S 292 0, 330, 58" fill="none" stroke="#ddd" style="opacity:0.054666666666667;stroke-width:15px;" transform="translate(-55, 753)" /><path d="M0 58 C 38.5 0, 72 0, 110 58 S 182 116, 220 58 S 292 0, 330, 58" fill="none" stroke="#ddd" style="opacity:0.054666666666667;stroke-width:15px;" transform="translate(-55, 228)" /><path d="M0 58 C 38.5 0, 72 0, 110 58 S 182 116, 220 58 S 292 0, 330, 58" fill="none" stroke="#ddd" style="opacity:0.054666666666667;stroke-width:15px;" transform="translate(-55, 768)" /><path d="M0 58 C 38.5 0, 72 0, 110 58 S 182 116, 220 58 S 292 0, 330, 58" fill="none" stroke="#ddd" style="opacity:0.072;stroke-width:15px;" transform="translate(-55, 243)" /><path d="M0 58 C 38.5 0, 72 0, 110 58 S 182 116, 220 58 S 292 0, 330, 58" fill="none" stroke="#ddd" style="opacity:0.072;stroke-width:15px;" transform="translate(-55, 783)" /><path d="M0 58 C 38.5 0, 72 0, 110 58 S 182 116, 220 58 S 292 0, 330, 58" fill="none" stroke="#ddd" style="opacity:0.14133333333333;stroke-width:15px;" transform="translate(-55, 258)" /><path d="M0 58 C 38.5 0, 72 0, 110 58 S 182 116, 220 58 S 292 0, 330, 58" fill="none" stroke="#ddd" style="opacity:0.14133333333333;stroke-width:15px;" transform="translate(-55, 798)" /><path d="M0 58 C 38.5 0, 72 0, 110 58 S 182 116, 220 58 S 292 0, 330, 58" fill="none" stroke="#222" style="opacity:0.080666666666667;stroke-width:15px;" transform="translate(-55, 273)" /><path d="M0 58 C 38.5 0, 72 0, 110 58 S 182 116, 220 58 S 292 0, 330, 58" fill="none" stroke="#222" style="opacity:0.080666666666667;stroke-width:15px;" transform="translate(-55, 813)" /><path d="M0 58 C 38.5 0, 72 0, 110 58 S 182 116, 220 58 S 292 0, 330, 58" fill="none" stroke="#ddd" style="opacity:0.089333333333333;stroke-width:15px;" transform="translate(-55, 288)" /><path d="M0 58 C 38.5 0, 72 0, 110 58 S 182 116, 220 58 S 292 0, 330, 58" fill="none" stroke="#ddd" style="opacity:0.089333333333333;stroke-width:15px;" transform="translate(-55, 828)" /><path d="M0 58 C 38.5 0, 72 0, 110 58 S 182 116, 220 58 S 292 0, 330, 58" fill="none" stroke="#222" style="opacity:0.15;stroke-width:15px;" transform="translate(-55, 303)" /><path d="M0 58 C 38.5 0, 72 0, 110 58 S 182 116, 220 58 S 292 0, 330, 58" fill="none" stroke="#222" style="opacity:0.15;stroke-width:15px;" transform="translate(-55, 843)" /><path d="M0 58 C 38.5 0, 72 0, 110 58 S 182 116, 220 58 S 292 0, 330, 58" fill="none" stroke="#ddd" style="opacity:0.072;stroke-width:15px;" transform="translate(-55, 318)" /><path d="M0 58 C 38.5 0, 72 0, 110 58 S 182 116, 220 58 S 292 0, 330, 58" fill="none" stroke="#ddd" style="opacity:0.072;stroke-width:15px;" transform="translate(-55, 858)" /><path d="M0 58 C 38.5 0, 72 0, 110 58 S 182 116, 220 58 S 292 0, 330, 58" fill="none" stroke="#ddd" style="opacity:0.089333333333333;stroke-width:15px;" transform="translate(-55, 333)" /><path d="M0 58 C 38.5 0, 72 0, 110 58 S 182 116, 220 58 S 292 0, 330, 58" fill="none" stroke="#ddd" style="opacity:0.089333333333333;stroke-width:15px;" transform="translate(-55, 873)" /><path d="M0 58 C 38.5 0, 72 0, 110 58 S 182 116, 220 58 S 292 0, 330, 58" fill="none" stroke="#222" style="opacity:0.098;stroke-width:15px;" transform="translate(-55, 348)" /><path d="M0 58 C 38.5 0, 72 0, 110 58 S 182 116, 220 58 S 292 0, 330, 58" fill="none" stroke="#222" style="opacity:0.098;stroke-width:15px;" transform="translate(-55, 888)" /><path d="M0 58 C 38.5 0, 72 0, 110 58 S 182 116, 220 58 S 292 0, 330, 58" fill="none" stroke="#ddd" style="opacity:0.037333333333333;stroke-width:15px;" transform="translate(-55, 363)" /><path d="M0 58 C 38.5 0, 72 0, 110 58 S 182 116, 220 58 S 292 0, 330, 58" fill="none" stroke="#ddd" style="opacity:0.037333333333333;stroke-width:15px;" transform="translate(-55, 903)" /><path d="M0 58 C 38.5 0, 72 0, 110 58 S 182 116, 220 58 S 292 0, 330, 58" fill="none" stroke="#ddd" style="opacity:0.10666666666667;stroke-width:15px;" transform="translate(-55, 378)" /><path d="M0 58 C 38.5 0, 72 0, 110 58 S 182 116, 220 58 S 292 0, 330, 58" fill="none" stroke="#ddd" style="opacity:0.10666666666667;stroke-width:15px;" transform="translate(-55, 918)" /><path d="M0 58 C 38.5 0, 72 0, 110 58 S 182 116, 220 58 S 292 0, 330, 58" fill="none" stroke="#ddd" style="opacity:0.10666666666667;stroke-width:15px;" transform="translate(-55, 393)" /><path d="M0 58 C 38.5 0, 72 0, 110 58 S 182 116, 220 58 S 292 0, 330, 58" fill="none" stroke="#ddd" style="opacity:0.10666666666667;stroke-width:15px;" transform="translate(-55, 933)" /><path d="M0 58 C 38.5 0, 72 0, 110 58 S 182 116, 220 58 S 292 0, 330, 58" fill="none" stroke="#222" style="opacity:0.13266666666667;stroke-width:15px;" transform="translate(-55, 408)" /><path d="M0 58 C 38.5 0, 72 0, 110 58 S 182 116, 220 58 S 292 0, 330, 58" fill="none" stroke="#222" style="opacity:0.13266666666667;stroke-width:15px;" transform="translate(-55, 948)" /><path d="M0 58 C 38.5 0, 72 0, 110 58 S 182 116, 220 58 S 292 0, 330, 58" fill="none" stroke="#ddd" style="opacity:0.124;stroke-width:15px;" transform="translate(-55, 423)" /><path d="M0 58 C 38.5 0, 72 0, 110 58 S 182 116, 220 58 S 292 0, 330, 58" fill="none" stroke="#ddd" style="opacity:0.124;stroke-width:15px;" transform="translate(-55, 963)" /><path d="M0 58 C 38.5 0, 72 0, 110 58 S 182 116, 220 58 S 292 0, 330, 58" fill="none" stroke="#222" style="opacity:0.11533333333333;stroke-width:15px;" transform="translate(-55, 438)" /><path d="M0 58 C 38.5 0, 72 0, 110 58 S 182 116, 220 58 S 292 0, 330, 58" fill="none" stroke="#222" style="opacity:0.11533333333333;stroke-width:15px;" transform="translate(-55, 978)" /></svg>