<?xml version="1.0"?><svg xmlns="http://www.w3.org/2000/svg" width="213" height="213"><rect x="0" y="0" width="100%" height="100%" fill="rgb(162, 155, 254)" /><polyline points="0, 0, 26.666666666667, 26.666666666667, 0, 26.666666666667, 0, 0" stroke="#000" stroke-opacity="0.02" fill-opacity="0.063333333333333" fill="#222" transform="translate(0, 26.666666666667) scale(1, -1)" /><polyline points="0, 0, 26.666666666667, 26.666666666667, 0, 26.666666666667, 0, 0" stroke="#000" stroke-opacity="0.02" fill-opacity="0.063333333333333" fill="#222" transform="translate(53.333333333333, 26.666666666667) scale(-1, -1)" /><polyline points="0, 0, 26.666666666667, 26.666666666667, 0, 26.666666666667, 0, 0" stroke="#000" stroke-opacity="0.02" fill-opacity="0.063333333333333" fill="#222" transform="translate(0, 26.666666666667) scale(1, 1)" /><polyline points="0, 0, 26.666666666667, 26.666666666667, 0, 26.666666666667, 0, 0" stroke="#000" stroke-opacity="0.02" fill-opacity="0.063333333333333" fill="#222" transform="translate(53.333333333333, 26.666666666667) scale(-1, 1)" /><polyline points="0, 0, 26.666666666667, 26.666666666667, 0, 26.666666666667, 0, 0" stroke="#000" stroke-opacity="0.02" fill-opacity="0.089333333333333" fill="#ddd" transform="translate(80, 0) scale(-1, 1)" /><polyline points="0, 0, 26.666666666667, 26.666666666667, 0, 26.666666666667, 0, 0" stroke="#000" stroke-opacity="0.02" fill-opacity="0.089333333333333" fill="#ddd" transform="translate(80, 53.333333333333) scale(1, -1)" /><polyline points="0, 0, 26.666666666667, 26.666666666667, 0, 26.666666666667, 0, 0" stroke="#000" stroke-opacity="0.02" fill-opacity="0.14133333333333" fill="#ddd" transform="translate(80, 53.333333333333) scale(-1, -1)" /><polyline points="0, 0, 26.666666666667, 26.666666666667, 0, 26.666666666667, 0, 0" stroke="#000" stroke-opacity="0.02" fill-opacity="0.14133333333333" fill="#ddd" transform="translate(80, 0) scale(1, 1)" /><polyline points="0, 0, 26.666666666667, 26.666666666667, 0, 26.666666666667, 0, 0" stroke="#000" stroke-opacity="0.02" fill-opacity="0.14133333333333" fill="#ddd" transform="translate(106.66666666667, 26.666666666667) scale(1, -1)" /><polyline points="0, 0, 26.666666666667, 26.666666666667, 0, 26.666666666667, 0, 0" stroke="#000" stroke-opacity="0.02" fill-opacity="0.14133333333333" fill="#ddd" transform="translate(160, 26.666666666667) scale(-1, -1)" /><polyline points="0, 0, 26.666666666667, 26.666666666667, 0, 26.666666666667, 0, 0" stroke="#000" stroke-opacity="0.02" fill-opacity="0.14133333333333" fill="#ddd" transform="translate(106.66666666667, 26.666666666667) scale(1, 1)" /><polyline points="0, 0, 26.666666666667, 26.666666666667, 0, 26.666666666667, 0, 0" stroke="#000" stroke-opacity="0.02" fill-opacity="0.14133333333333" fill="#ddd" transform="translate(160, 26.666666666667) scale(-1, 1)" /><polyline points="0, 0, 26.666666666667, 26.666666666667, 0, 26.666666666667, 0, 0" stroke="#000" stroke-opacity="0.02" fill-opacity="0.080666666666667" fill="#222" transform="translate(186.66666666667, 0) scale(-1, 1)" /><polyline points="0, 0, 26.666666666667, 26.666666666667, 0, 26.666666666667, 0, 0" stroke="#000" stroke-opacity="0.02" fill-opacity="0.080666666666667" fill="#222" transform="translate(186.66666666667, 53.333333333333) scale(1, -1)" /><polyline points="0, 0, 26.666666666667, 26.666666666667, 0, 26.666666666667, 0, 0" stroke="#000" stroke-opacity="0.02" fill-opacity="0.02" fill="#ddd" transform="translate(186.66666666667, 53.333333333333) scale(-1, -1)" /><polyline points="0, 0, 26.666666666667, 26.666666666667, 0, 26.666666666667, 0, 0" stroke="#000" stroke-opacity="0.02" fill-opacity="0.02" fill="#ddd" transform="translate(186.66666666667, 0) scale(1, 1)" /><polyline points="0, 0, 26.666666666667, 26.666666666667, 0, 26.666666666667, 0, 0" stroke="#000" stroke-opacity="0.02" fill-opacity="0.02" fill="#ddd" transform="translate(26.666666666667, 53.333333333333) scale(-1, 1)" /><polyline points="0, 0, 26.666666666667, 26.666666666667, 0, 26.666666666667, 0, 0" stroke="#000" stroke-opacity="0.02" fill-opacity="0.02" fill="#ddd" transform="translate(26.666666666667, 106.66666666667) scale(1, -1)" /><polyline points="0, 0, 26.666666666667, 26.666666666667, 0, 26.666666666667, 0, 0" stroke="#000" stroke-opacity="0.02" fill-opacity="0.13266666666667" fill="#222" transform="translate(26.666666666667, 106.66666666667) scale(-1, -1)" /><polyline points="0, 0, 26.666666666667, 26.666666666667, 0, 26.666666666667, 0, 0" stroke="#000" stroke-opacity="0.02" fill-opacity="0.13266666666667" fill="#222" transform="translate(26.666666666667, 53.333333333333) scale(1, 1)" /><polyline points="0, 0, 26.666666666667, 26.666666666667, 0, 26.666666666667, 0, 0" stroke="#000" stroke-opacity="0.02" fill-opacity="0.13266666666667" fill="#222" transform="translate(53.333333333333, 80) scale(1, -1)" /><polyline points="0, 0, 26.666666666667, 26.666666666667, 0, 26.666666666667, 0, 0" stroke="#000" stroke-opacity="0.02" fill-opacity="0.13266666666667" fill="#222" transform="translate(106.66666666667, 80) scale(-1, -1)" /><polyline points="0, 0, 26.666666666667, 26.666666666667, 0, 26.666666666667, 0, 0" stroke="#000" stroke-opacity="0.02" fill-opacity="0.13266666666667" fill="#222" transform="translate(53.333333333333, 80) scale(1, 1)" /><polyline points="0, 0, 26.666666666667, 26.666666666667, 0, 26.666666666667, 0, 0" stroke="#000" stroke-opacity="0.02" fill-opacity="0.13266666666667" fill="#222" transform="translate(106.66666666667, 80) scale(-1, 1)" /><polyline points="0, 0, 26.666666666667, 26.666666666667, 0, 26.666666666667, 0, 0" stroke="#000" stroke-opacity="0.02" fill-opacity="0.11533333333333" fill="#222" transform="translate(133.33333333333, 53.333333333333) scale(-1, 1)" /><polyline points="0, 0, 26.666666666667, 26.666666666667, 0, 26.666666666667, 0, 0" stroke="#000" stroke-opacity="0.02" fill-opacity="0.11533333333333" fill="#222" transform="translate(133.33333333333, 106.66666666667) scale(1, -1)" /><polyline points="0, 0, 26.666666666667, 26.666666666667, 0, 26.666666666667, 0, 0" stroke="#000" stroke-opacity="0.02" fill-opacity="0.046" fill="#222" transform="translate(133.33333333333, 106.66666666667) scale(-1, -1)" /><polyline points="0, 0, 26.666666666667, 26.666666666667, 0, 26.666666666667, 0, 0" stroke="#000" stroke-opacity="0.02" fill-opacity="0.046" fill="#222" transform="translate(133.33333333333, 53.333333333333) scale(1, 1)" /><polyline points="0, 0, 26.666666666667, 26.666666666667, 0, 26.666666666667, 0, 0" stroke="#000" stroke-opacity="0.02" fill-opacity="0.046" fill="#222" transform="translate(160, 80) scale(1, -1)" /><polyline points="0, 0, 26.666666666667, 26.666666666667, 0, 26.666666666667, 0, 0" stroke="#000" stroke-opacity="0.02" fill-opacity="0.046" fill="#222" transform="translate(213.33333333333, 80) scale(-1, -1)" /><polyline points="0, 0, 26.666666666667, 26.666666666667, 0, 26.666666666667, 0, 0" stroke="#000" stroke-opacity="0.02" fill-opacity="0.046" fill="#222" transform="translate(160, 80) scale(1, 1)" /><polyline points="0, 0, 26.666666666667, 26.666666666667, 0, 26.666666666667, 0, 0" stroke="#000" stroke-opacity="0.02" fill-opacity="0.046" fill="#222" transform="translate(213.33333333333, 80) scale(-1, 1)" /><polyline points="0, 0, 26.666666666667, 26.666666666667, 0, 26.666666666667, 0, 0" stroke="#000" stroke-opacity="0.02" fill-opacity="0.046" fill="#222" transform="translate(0, 133.33333333333) scale(1, -1)" /><polyline points="0, 0, 26.666666666667, 26.666666666667, 0, 26.666666666667, 0, 0" stroke="#000" stroke-opacity="0.02" fill-opacity="0.046" fill="#222" transform="translate(53.333333333333, 133.33333333333) scale(-1, -1)" /><polyline points="0, 0, 26.666666666667, 26.666666666667, 0, 26.666666666667, 0, 0" stroke="#000" stroke-opacity="0.02" fill-opacity="0.046" fill="#222" transform="translate(0, 133.33333333333) scale(1, 1)" /><polyline points="0, 0, 26.666666666667, 26.666666666667, 0, 26.666666666667, 0, 0" stroke="#000" stroke-opacity="0.02" fill-opacity="0.046" fill="#222" transform="translate(53.333333333333, 133.33333333333) scale(-1, 1)" /><polyline points="0, 0, 26.666666666667, 26.666666666667, 0, 26.666666666667, 0, 0" stroke="#000" stroke-opacity="0.02" fill-opacity="0.063333333333333" fill="#222" transform="translate(80, 106.66666666667) scale(-1, 1)" /><polyline points="0, 0, 26.666666666667, 26.666666666667, 0, 26.666666666667, 0, 0" stroke="#000" stroke-opacity="0.02" fill-opacity="0.063333333333333" fill="#222" transform="translate(80, 160) scale(1, -1)" /><polyline points="0, 0, 26.666666666667, 26.666666666667, 0, 26.666666666667, 0, 0" stroke="#000" stroke-opacity="0.02" fill-opacity="0.063333333333333" fill="#222" transform="translate(80, 160) scale(-1, -1)" /><polyline points="0, 0, 26.666666666667, 26.666666666667, 0, 26.666666666667, 0, 0" stroke="#000" stroke-opacity="0.02" fill-opacity="0.063333333333333" fill="#222" transform="translate(80, 106.66666666667) scale(1, 1)" /><polyline points="0, 0, 26.666666666667, 26.666666666667, 0, 26.666666666667, 0, 0" stroke="#000" stroke-opacity="0.02" fill-opacity="0.063333333333333" fill="#222" transform="translate(106.66666666667, 133.33333333333) scale(1, -1)" /><polyline points="0, 0, 26.666666666667, 26.666666666667, 0, 26.666666666667, 0, 0" stroke="#000" stroke-opacity="0.02" fill-opacity="0.063333333333333" fill="#222" transform="translate(160, 133.33333333333) scale(-1, -1)" /><polyline points="0, 0, 26.666666666667, 26.666666666667, 0, 26.666666666667, 0, 0" stroke="#000" stroke-opacity="0.02" fill-opacity="0.063333333333333" fill="#222" transform="translate(106.66666666667, 133.33333333333) scale(1, 1)" /><polyline points="0, 0, 26.666666666667, 26.666666666667, 0, 26.666666666667, 0, 0" stroke="#000" stroke-opacity="0.02" fill-opacity="0.063333333333333" fill="#222" transform="translate(160, 133.33333333333) scale(-1, 1)" /><polyline points="0, 0, 26.666666666667, 26.666666666667, 0, 26.666666666667, 0, 0" stroke="#000" stroke-opacity="0.02" fill-opacity="0.063333333333333" fill="#222" transform="translate(186.66666666667, 106.66666666667) scale(-1, 1)" /><polyline points="0, 0, 26.666666666667, 26.666666666667, 0, 26.666666666667, 0, 0" stroke="#000" stroke-opacity="0.02" fill-opacity="0.063333333333333" fill="#222" transform="translate(186.66666666667, 160) scale(1, -1)" /><polyline points="0, 0, 26.666666666667, 26.666666666667, 0, 26.666666666667, 0, 0" stroke="#000" stroke-opacity="0.02" fill-opacity="0.072" fill="#ddd" transform="translate(186.66666666667, 160) scale(-1, -1)" /><polyline points="0, 0, 26.666666666667, 26.666666666667, 0, 26.666666666667, 0, 0" stroke="#000" stroke-opacity="0.02" fill-opacity="0.072" fill="#ddd" transform="translate(186.66666666667, 106.66666666667) scale(1, 1)" /><polyline points="0, 0, 26.666666666667, 26.666666666667, 0, 26.666666666667, 0, 0" stroke="#000" stroke-opacity="0.02" fill-opacity="0.072" fill="#ddd" transform="translate(26.666666666667, 160) scale(-1, 1)" /><polyline points="0, 0, 26.666666666667, 26.666666666667, 0, 26.666666666667, 0, 0" stroke="#000" stroke-opacity="0.02" fill-opacity="0.072" fill="#ddd" transform="translate(26.666666666667, 213.33333333333) scale(1, -1)" /><polyline points="0, 0, 26.666666666667, 26.666666666667, 0, 26.666666666667, 0, 0" stroke="#000" stroke-opacity="0.02" fill-opacity="0.080666666666667" fill="#222" transform="translate(26.666666666667, 213.33333333333) scale(-1, -1)" /><polyline points="0, 0, 26.666666666667, 26.666666666667, 0, 26.666666666667, 0, 0" stroke="#000" stroke-opacity="0.02" fill-opacity="0.080666666666667" fill="#222" transform="translate(26.666666666667, 160) scale(1, 1)" /><polyline points="0, 0, 26.666666666667, 26.666666666667, 0, 26.666666666667, 0, 0" stroke="#000" stroke-opacity="0.02" fill-opacity="0.080666666666667" fill="#222" transform="translate(53.333333333333, 186.66666666667) scale(1, -1)" /><polyline points="0, 0, 26.666666666667, 26.666666666667, 0, 26.666666666667, 0, 0" stroke="#000" stroke-opacity="0.02" fill-opacity="0.080666666666667" fill="#222" transform="translate(106.66666666667, 186.66666666667) scale(-1, -1)" /><polyline points="0, 0, 26.666666666667, 26.666666666667, 0, 26.666666666667, 0, 0" stroke="#000" stroke-opacity="0.02" fill-opacity="0.080666666666667" fill="#222" transform="translate(53.333333333333, 186.66666666667) scale(1, 1)" /><polyline points="0, 0, 26.666666666667, 26.666666666667, 0, 26.666666666667, 0, 0" stroke="#000" stroke-opacity="0.02" fill-opacity="0.080666666666667" fill="#222" transform="translate(106.66666666667, 186.66666666667) scale(-1, 1)" /><polyline points="0, 0, 26.666666666667, 26.666666666667, 0, 26.666666666667, 0, 0" stroke="#000" stroke-opacity="0.02" fill-opacity="0.080666666666667" fill="#222" transform="translate(133.33333333333, 160) scale(-1, 1)" /><polyline points="0, 0, 26.666666666667, 26.666666666667, 0, 26.666666666667, 0, 0" stroke="#000" stroke-opacity="0.02" fill-opacity="0.080666666666667" fill="#222" transform="translate(133.33333333333, 213.33333333333) scale(1, -1)" /><polyline points="0, 0, 26.666666666667, 26.666666666667, 0, 26.666666666667, 0, 0" stroke="#000" stroke-opacity="0.02" fill-opacity="0.037333333333333" fill="#ddd" transform="translate(133.33333333333, 213.33333333333) scale(-1, -1)" /><polyline points="0, 0, 26.666666666667, 26.666666666667, 0, 26.666666666667, 0, 0" stroke="#000" stroke-opacity="0.02" fill-opacity="0.037333333333333" fill="#ddd" transform="translate(133.33333333333, 160) scale(1, 1)" /><polyline points="0, 0, 26.666666666667, 26.666666666667, 0, 26.666666666667, 0, 0" stroke="#000" stroke-opacity="0.02" fill-opacity="0.037333333333333" fill="#ddd" transform="translate(160, 186.66666666667) scale(1, -1)" /><polyline points="0, 0, 26.666666666667, 26.666666666667, 0, 26.666666666667, 0, 0" stroke="#000" stroke-opacity="0.02" fill-opacity="0.037333333333333" fill="#ddd" transform="translate(213.33333333333, 186.66666666667) scale(-1, -1)" /><polyline points="0, 0, 26.666666666667, 26.666666666667, 0, 26.666666666667, 0, 0" stroke="#000" stroke-opacity="0.02" fill-opacity="0.037333333333333" fill="#ddd" transform="translate(160, 186.66666666667) scale(1, 1)" /><polyline points="0, 0, 26.666666666667, 26.666666666667, 0, 26.666666666667, 0, 0" stroke="#000" stroke-opacity="0.02" fill-opacity="0.037333333333333" fill="#ddd" transform="translate(213.33333333333, 186.66666666667) scale(-1, 1)" /></svg>